<?xml version="1.0"?>
<!DOCTYPE svg PUBLIC "-//W3C//DTD SVG 1.0//EN" "http://www.w3.org/TR/2001/REC-SVG-20010904/DTD/svg10.dtd">
<svg xmlns="http://www.w3.org/2000/svg" xmlns:xlink="http://www.w3.org/1999/xlink" width="800" height="500" fill-rule="evenodd">
<g style="fill:#0055ff; stroke-width:0px">
<path d="M421.97348 255.09624L421.97348 259.3775L424.50473 259.3775Q425.77036 259.3775 426.38754 258.84625Q427.00473 258.315 427.00473 257.23688Q427.00473 256.14313 426.38754 255.61967Q425.77036 255.09624 424.50473 255.09624L421.97348 255.09624ZM421.97348 250.29936L421.97348 253.81499L424.3016 253.81499Q425.45786 253.81499 426.02817 253.3853Q426.59848 252.95561 426.59848 252.06499Q426.59848 251.17436 426.02817 250.73686Q425.45786 250.29936 424.3016 250.29936L421.97348 250.29936ZM420.39536 249.00249L424.4266 249.00249Q426.22348 249.00249 427.20004 249.75249Q428.1766 250.50249 428.1766 251.89311Q428.1766 252.95561 427.6766 253.58842Q427.1766 254.22124 426.20786 254.37749Q427.37973 254.62749 428.02036 255.42436Q428.66098 256.22125 428.66098 257.40875Q428.66098 258.97125 427.59848 259.8228Q426.53598 260.67438 424.58286 260.67438L420.39536 260.67438L420.39536 249.00249Z"/>
</g>
<g style="fill:#0033ff; stroke-width:0px">
<path d="M699.44836 206.13806L697.2765 206.13806Q698.24524 205.09119 698.7296 203.90369Q699.214 202.71619 699.214 201.38806Q699.214 198.76306 697.6046 197.36462Q695.99524 195.96619 692.964 195.96619Q689.93274 195.96619 688.3312 197.36462Q686.7296 198.76306 686.7296 201.38806Q686.7296 202.71619 687.214 203.90369Q687.69836 205.09119 688.6671 206.13806L686.49524 206.13806Q685.76086 205.04431 685.3937 203.83337Q685.0265 202.62244 685.0265 201.26306Q685.0265 197.77869 687.1515 195.77869Q689.2765 193.77869 692.964 193.77869Q696.6515 193.77869 698.7843 195.77869Q700.9171 197.77869 700.9171 201.26306Q700.9171 202.63806 700.5499 203.849Q700.18274 205.05994 699.44836 206.13806Z"/>
</g>
<g style="fill:#0055ff; stroke-width:0px">
<path d="M488.55017 266.2855L473.23767 266.2855L473.23767 269.50424Q473.23767 273.58237 475.08142 275.473Q476.92517 277.36362 480.90955 277.36362Q484.86267 277.36362 486.70642 275.473Q488.55017 273.58237 488.55017 269.50424L488.55017 266.2855ZM490.73767 263.62924L490.73767 269.098Q490.73767 274.81674 488.35486 277.49643Q485.97205 280.17612 480.90955 280.17612Q475.8158 280.17612 473.43298 277.4808Q471.05017 274.7855 471.05017 269.098L471.05017 263.62924L490.73767 263.62924Z"/>
</g>
<g style="fill:#00bbff; stroke-width:0px">
<path d="M522.0465 169.04501L522.0465 183.79501L519.39026 183.79501L519.39026 172.20126L512.484 172.20126L512.484 183.31064L509.82776 183.31064L509.82776 172.20126L501.37463 172.20126L501.37463 184.07626L498.71838 184.07626L498.71838 169.04501L522.0465 169.04501Z"/>
</g>
<g style="fill:#0088ff; stroke-width:0px">
<path d="M617.71277 211.77599L633.63464 211.77599L633.63464 214.93224L621.46277 214.93224L621.46277 223.08849L632.44714 223.08849L632.44714 226.24474L621.46277 226.24474L621.46277 239.47911L617.71277 239.47911L617.71277 211.77599Z"/>
</g>
<g style="fill:#00bbff; stroke-width:0px">
<path d="M451.54602 188.87361L442.93665 188.87361L442.93665 195.96736L439.35852 195.96736L439.35852 184.57674L453.13977 184.57674Q454.92102 187.09236 455.83508 190.1158Q456.74915 193.13924 456.74915 196.57674Q456.74915 204.10799 452.3507 208.35017Q447.95227 212.59236 440.12415 212.59236Q432.24915 212.59236 427.85852 208.35017Q423.4679 204.10799 423.4679 196.57674Q423.4679 193.45174 424.24133 190.62361Q425.01477 187.79549 426.51477 185.40486L431.13977 185.40486Q429.0929 187.81111 428.06165 190.52205Q427.0304 193.23299 427.0304 196.21736Q427.0304 202.10799 430.31946 205.06111Q433.60852 208.01424 440.12415 208.01424Q446.60852 208.01424 449.89758 205.06111Q453.18665 202.10799 453.18665 196.21736Q453.18665 193.92049 452.7882 192.1158Q452.38977 190.31111 451.54602 188.87361Z"/>
</g>
<g style="fill:#0088ff; stroke-width:0px">
<path d="M338.5841 238.57262L343.41223 238.57262L343.41223 253.21324L360.97473 253.21324L360.97473 238.57262L365.80286 238.57262L365.80286 274.29138L360.97473 274.29138L360.97473 257.27576L343.41223 257.27576L343.41223 274.29138L338.5841 274.29138L338.5841 238.57262Z"/>
</g>
<g style="fill:#00bbff; stroke-width:0px">
<path d="M355.59073 158.40814L361.5126 158.40814L361.5126 199.09564Q361.5126 207.00189 358.5048 210.58002Q355.49698 214.15814 348.85635 214.15814L346.59073 214.15814L346.59073 209.17377L348.43448 209.17377Q352.37198 209.17377 353.98135 206.97845Q355.59073 204.78314 355.59073 199.09564L355.59073 158.40814Z"/>
</g>
<g style="fill:#00bbff; stroke-width:0px">
<path d="M503.53436 197.52045L510.03436 197.52045L510.03436 217.84857L531.6281 197.52045L540.0031 197.52045L516.1281 219.94232L541.72186 245.62982L533.14374 245.62982L510.03436 222.45795L510.03436 245.62982L503.53436 245.62982L503.53436 197.52045Z"/>
</g>
<g style="fill:#00bbff; stroke-width:0px">
<path d="M493.21024 214.5635L500.3196 214.5635L500.3196 261.0635L525.8821 261.0635L525.8821 267.04788L493.21024 267.04788L493.21024 214.5635Z"/>
</g>
<g style="fill:#0033ff; stroke-width:0px">
<path d="M367.77722 257.31317L379.08972 257.31317L393.41785 295.5163L407.80847 257.31317L419.1366 257.31317L419.1366 313.4538L411.73035 313.4538L411.73035 264.15692L397.24597 302.65692L389.62097 302.65692L375.1366 264.15692L375.1366 313.4538L367.77722 313.4538L367.77722 257.31317Z"/>
</g>
<g style="fill:#0055ff; stroke-width:0px">
<path d="M267.70172 223.9292L278.73297 223.9292L305.5611 274.53857L305.5611 223.9292L313.4986 223.9292L313.4986 284.4292L302.48297 284.4292L275.65485 233.8042L275.65485 284.4292L267.70172 284.4292L267.70172 223.9292Z"/>
</g>
<g style="fill:#0055ff; stroke-width:0px">
<path d="M32.660217 121.62266Q23.207092 121.62266 17.644592 128.66953Q12.082092 135.7164 12.082092 147.87265Q12.082092 159.99765 17.644592 167.04453Q23.207092 174.0914 32.660217 174.0914Q42.113342 174.0914 47.63678 167.04453Q53.160217 159.99765 53.160217 147.87265Q53.160217 135.7164 47.63678 128.66953Q42.113342 121.62266 32.660217 121.62266ZM32.660217 114.57578Q46.160217 114.57578 54.238342 123.62266Q62.316467 132.66953 62.316467 147.87265Q62.316467 163.04453 54.238342 172.0914Q46.160217 181.13828 32.660217 181.13828Q19.128967 181.13828 11.027405 172.11484Q2.9258423 163.0914 2.9258423 147.87265Q2.9258423 132.66953 11.027405 123.62266Q19.128967 114.57578 32.660217 114.57578Z"/>
</g>
<g style="fill:#0033ff; stroke-width:0px">
<path d="M435.59366 168.83984L461.34366 168.83984L461.34366 157.1836Q461.34366 150.71484 457.9921 147.17578Q454.64053 143.63672 448.4374 143.63672Q442.29678 143.63672 438.94522 147.17578Q435.59366 150.71484 435.59366 157.1836L435.59366 168.83984ZM427.96866 178.1211L427.96866 157.1836Q427.96866 145.66797 433.1796 139.76953Q438.39053 133.8711 448.4374 133.8711Q458.59366 133.8711 463.77335 139.76953Q468.95303 145.66797 468.95303 157.1836L468.95303 168.83984L496.4999 168.83984L496.4999 178.1211L427.96866 178.1211Z"/>
</g>
<g style="fill:#00bbff; stroke-width:0px">
<path d="M577.2605 224.97182Q566.5105 224.97182 560.1902 232.97963Q553.8699 240.98744 553.8699 254.81557Q553.8699 268.58118 560.1902 276.589Q566.5105 284.5968 577.2605 284.5968Q587.9949 284.5968 594.2761 276.589Q600.5574 268.58118 600.5574 254.81557Q600.5574 240.98744 594.2761 232.97963Q587.9949 224.97182 577.2605 224.97182ZM591.073 289.87805L604.073 304.08118L592.1511 304.08118L581.35425 292.4093Q579.7449 292.50305 578.8933 292.55774Q578.04175 292.61243 577.2605 292.61243Q561.8855 292.61243 552.67456 282.33118Q543.4636 272.04993 543.4636 254.81557Q543.4636 237.53432 552.67456 227.25307Q561.8855 216.97182 577.2605 216.97182Q592.5886 216.97182 601.7683 227.25307Q610.948 237.53432 610.948 254.81557Q610.948 267.50305 605.84644 276.5421Q600.7449 285.58118 591.073 289.87805Z"/>
</g>
<g style="fill:#00bbff; stroke-width:0px">
<path d="M298.09067 326.65106Q301.4188 327.77606 304.57504 331.47137Q307.7313 335.1667 310.90317 341.6198L321.4188 362.5417L310.2938 362.5417L300.49692 342.90106Q296.70004 335.21356 293.13754 332.70575Q289.57504 330.19794 283.4188 330.19794L272.13754 330.19794L272.13754 362.5417L261.7938 362.5417L261.7938 285.9948L285.1688 285.9948Q298.2938 285.9948 304.75473 291.4792Q311.21567 296.96356 311.21567 308.0417Q311.21567 315.27606 307.8563 320.0417Q304.49692 324.8073 298.09067 326.65106ZM272.13754 294.51044L272.13754 321.6823L285.1688 321.6823Q292.65317 321.6823 296.47348 318.22137Q300.2938 314.76044 300.2938 308.0417Q300.2938 301.32294 296.47348 297.9167Q292.65317 294.51044 285.1688 294.51044L272.13754 294.51044Z"/>
</g>
<g style="fill:#00bbff; stroke-width:0px">
<path d="M415.75342 319.399L415.75342 330.07086Q409.51904 327.1021 403.9878 325.63336Q398.45654 324.1646 393.31592 324.1646Q384.3628 324.1646 379.51123 327.63336Q374.65967 331.1021 374.65967 337.50836Q374.65967 342.86774 377.88623 345.6021Q381.1128 348.3365 390.1128 350.024L396.72217 351.38336Q408.97217 353.7115 414.8003 359.5943Q420.62842 365.4771 420.62842 375.3365Q420.62842 387.1021 412.7456 393.17242Q404.8628 399.24274 389.62842 399.24274Q383.87842 399.24274 377.40186 397.93805Q370.9253 396.63336 363.9878 394.0865L363.9878 382.82086Q370.65967 386.55524 377.0503 388.45367Q383.44092 390.3521 389.62842 390.3521Q399.00342 390.3521 404.09717 386.6646Q409.19092 382.9771 409.19092 376.149Q409.19092 370.18024 405.53467 366.82086Q401.87842 363.4615 393.53467 361.7896L386.8628 360.4771Q374.6128 358.0396 369.13623 352.8365Q363.65967 347.63336 363.65967 338.36774Q363.65967 327.63336 371.22217 321.45367Q378.78467 315.274 392.06592 315.274Q397.75342 315.274 403.65967 316.30524Q409.56592 317.3365 415.75342 319.399Z"/>
</g>
<g style="fill:#0088ff; stroke-width:0px">
<path d="M479.2769 286.1686L550.8237 286.1686L550.8237 295.7936L520.7925 295.7936L520.7925 370.7311L509.30814 370.7311L509.30814 295.7936L479.2769 295.7936L479.2769 286.1686Z"/>
</g>
<g style="fill:#0088ff; stroke-width:0px">
<path d="M427.534 298.11768L439.62775 298.11768L439.62775 352.14893Q439.62775 366.4458 444.80743 372.72705Q449.98712 379.0083 461.5965 379.0083Q473.159 379.0083 478.33868 372.72705Q483.51837 366.4458 483.51837 352.14893L483.51837 298.11768L495.61212 298.11768L495.61212 353.6333Q495.61212 371.02393 487.01056 379.90674Q478.409 388.78955 461.5965 388.78955Q444.73712 388.78955 436.13556 379.90674Q427.534 371.02393 427.534 353.6333L427.534 298.11768Z"/>
</g>
<g style="fill:#0055ff; stroke-width:0px">
<path d="M234.38295 266.15717L198.75795 172.84468L211.94545 172.84468L241.50795 251.40718L271.13293 172.84468L284.25793 172.84468L248.69545 266.15717L234.38295 266.15717Z"/>
</g>
<g style="fill:#0055ff; stroke-width:0px">
<path d="M524.15356 310.37878L537.40356 310.37878L557.7942 392.3319L578.1067 310.37878L592.8567 310.37878L613.2473 392.3319L633.57544 310.37878L646.88794 310.37878L622.52856 407.3319L606.0442 407.3319L585.57544 323.16003L564.9348 407.3319L548.4348 407.3319L524.15356 310.37878Z"/>
</g>
<g style="fill:#0055ff; stroke-width:0px">
<path d="M345.17468 123.021515L360.4403 123.021515L389.54968 166.19339L418.4403 123.021515L433.70593 123.021515L396.58093 178.00589L396.58093 228.00589L382.29968 228.00589L382.29968 178.00589L345.17468 123.021515Z"/>
</g>
</svg>
